<mxfile host="app.diagrams.net" agent="Mozilla/5.0 (Windows NT 10.0; Win64; x64; rv:138.0) Gecko/20100101 Firefox/138.0" version="27.0.6">
  <diagram name="Seite-1" id="iLWjmis9E15XfalFSxRw">
    <mxGraphModel dx="563" dy="309" grid="1" gridSize="10" guides="1" tooltips="1" connect="1" arrows="1" fold="1" page="1" pageScale="1" pageWidth="827" pageHeight="1169" math="0" shadow="0">
      <root>
        <mxCell id="0" />
        <mxCell id="1" parent="0" />
        <mxCell id="w3uJhZExHx2Av-R2yiaF-1" value="Voice Mail Box Board" style="rounded=0;whiteSpace=wrap;html=1;fillColor=#11A41C;strokeColor=#456036;" vertex="1" parent="1">
          <mxGeometry x="240" y="280" width="280" height="40" as="geometry" />
        </mxCell>
        <mxCell id="w3uJhZExHx2Av-R2yiaF-2" value="STM32 Microcontroller" style="rounded=0;whiteSpace=wrap;html=1;fillColor=#637EF9;strokeColor=#3E4F9D;" vertex="1" parent="1">
          <mxGeometry x="240" y="240" width="280" height="40" as="geometry" />
        </mxCell>
        <mxCell id="w3uJhZExHx2Av-R2yiaF-3" value="STM32 HAL" style="rounded=0;whiteSpace=wrap;html=1;fillColor=#dae8fc;strokeColor=#6c8ebf;" vertex="1" parent="1">
          <mxGeometry x="260" y="200" width="240" height="40" as="geometry" />
        </mxCell>
        <mxCell id="w3uJhZExHx2Av-R2yiaF-4" value="BSP_VoiceMailBox" style="rounded=0;whiteSpace=wrap;html=1;fillColor=#dae8fc;strokeColor=#6c8ebf;" vertex="1" parent="1">
          <mxGeometry x="270" y="160" width="220" height="40" as="geometry" />
        </mxCell>
        <mxCell id="w3uJhZExHx2Av-R2yiaF-5" value="Application" style="rounded=0;whiteSpace=wrap;html=1;fillColor=#fff2cc;strokeColor=#d6b656;" vertex="1" parent="1">
          <mxGeometry x="290" y="120" width="180" height="40" as="geometry" />
        </mxCell>
        <mxCell id="w3uJhZExHx2Av-R2yiaF-6" value="Hardware" style="text;html=1;align=center;verticalAlign=middle;whiteSpace=wrap;rounded=0;rotation=-90;" vertex="1" parent="1">
          <mxGeometry x="150" y="270" width="60" height="30" as="geometry" />
        </mxCell>
        <mxCell id="w3uJhZExHx2Av-R2yiaF-7" value="Software" style="text;html=1;align=center;verticalAlign=middle;whiteSpace=wrap;rounded=0;rotation=-90;" vertex="1" parent="1">
          <mxGeometry x="150" y="160" width="60" height="30" as="geometry" />
        </mxCell>
        <mxCell id="w3uJhZExHx2Av-R2yiaF-8" value="" style="endArrow=none;html=1;rounded=0;" edge="1" parent="1">
          <mxGeometry width="50" height="50" relative="1" as="geometry">
            <mxPoint x="160" y="320" as="sourcePoint" />
            <mxPoint x="220" y="320" as="targetPoint" />
          </mxGeometry>
        </mxCell>
        <mxCell id="w3uJhZExHx2Av-R2yiaF-9" value="" style="endArrow=none;html=1;rounded=0;" edge="1" parent="1">
          <mxGeometry width="50" height="50" relative="1" as="geometry">
            <mxPoint x="160" y="240" as="sourcePoint" />
            <mxPoint x="220" y="240" as="targetPoint" />
          </mxGeometry>
        </mxCell>
        <mxCell id="w3uJhZExHx2Av-R2yiaF-10" value="" style="endArrow=none;html=1;rounded=0;" edge="1" parent="1">
          <mxGeometry width="50" height="50" relative="1" as="geometry">
            <mxPoint x="160" y="120" as="sourcePoint" />
            <mxPoint x="220" y="120" as="targetPoint" />
          </mxGeometry>
        </mxCell>
        <mxCell id="w3uJhZExHx2Av-R2yiaF-11" value="" style="endArrow=none;html=1;rounded=0;" edge="1" parent="1">
          <mxGeometry width="50" height="50" relative="1" as="geometry">
            <mxPoint x="160" y="240" as="sourcePoint" />
            <mxPoint x="160" y="120" as="targetPoint" />
          </mxGeometry>
        </mxCell>
        <mxCell id="w3uJhZExHx2Av-R2yiaF-12" value="" style="endArrow=none;html=1;rounded=0;" edge="1" parent="1">
          <mxGeometry width="50" height="50" relative="1" as="geometry">
            <mxPoint x="160" y="320" as="sourcePoint" />
            <mxPoint x="160" y="240" as="targetPoint" />
          </mxGeometry>
        </mxCell>
      </root>
    </mxGraphModel>
  </diagram>
</mxfile>
